<svg xmlns="http://www.w3.org/2000/svg" width="22" height="22" viewBox="0 0 22 22">
  <g id="Grupo_253" data-name="Grupo 253" transform="translate(-2)">
    <path id="Caminho_125" data-name="Caminho 125" d="M20.763,5.143h-1.87V2.786A.786.786,0,0,0,18.107,2H9.959A7.967,7.967,0,0,0,2,9.959V23.214a.786.786,0,1,0,1.571,0V9.959A6.4,6.4,0,0,1,9.959,3.571h7.362V5.143H15.459a3.245,3.245,0,0,0-3.245,3.245v.684A.786.786,0,0,0,13,9.857H23.214A.786.786,0,0,0,24,9.071V8.388a3.245,3.245,0,0,0-3.237-3.245ZM13.786,8.286a1.681,1.681,0,0,1,1.674-1.571h5.3a1.681,1.681,0,0,1,1.666,1.571Z" transform="translate(0 -2)" fill="#4d5e66"/>
    <path id="Caminho_126" data-name="Caminho 126" d="M23.392,16.219V14.647a.786.786,0,1,0-1.571,0v1.571a.786.786,0,1,0,1.571,0Zm.8.071a.786.786,0,0,0-.786.786v1.571a.786.786,0,1,0,1.571,0V17.075A.786.786,0,0,0,24.194,16.289Zm-2.4,1.061a.786.786,0,0,0-.786.786v1.571a.786.786,0,1,0,1.571,0V18.136A.786.786,0,0,0,21.789,17.35Zm1.666,2.569a.786.786,0,0,0-.786.786v1.571a.786.786,0,1,0,1.571,0V20.7A.786.786,0,0,0,23.455,19.919Zm1.116-7.629a.786.786,0,0,0-.786.786v1.571a.786.786,0,1,0,1.571,0V13.076A.786.786,0,0,0,24.571,12.29ZM21.4,15.716V14.144a.786.786,0,1,0-1.571,0v1.571a.786.786,0,1,0,1.571,0Zm-2.035-.77V13.374a.786.786,0,1,0-1.571,0v1.571a.786.786,0,1,0,1.571,0Zm.951,3.7V17.075a.786.786,0,0,0-1.571,0v1.571a.786.786,0,0,0,1.571,0Zm.3,1.784a.786.786,0,0,0-.786.786v1.571a.786.786,0,1,0,1.571,0V21.216A.786.786,0,0,0,20.611,20.43Z" transform="translate(-3.384 -4.205)" fill="#4d5e66"/>
  </g>
</svg>
